<svg xmlns="http://www.w3.org/2000/svg" version="1.1" xmlns:xlink="http://www.w3.org/1999/xlink" width="963.8539428710938" height="1020" style="outline: none; background: rgb(247, 249, 255); top: 0px; left: 0px; display: block; z-index: -1; font-size: 12px;" id="mind-svg-con"><g id="svgbackgroundid"><defs></defs><rect x="0" y="0" width="963.8539428710938" height="1020" fill="#F7F9FF"></rect></g><g class="po-mind-container" transform="matrix(1,0,0,1,103.69999694824219,514.5)"><g class="po-mind-line-container"><g from="root" to="a6ee1a90-b48b-4f0f-93a4-6e9551ca3346" opacity="1"><path d="M78.7 0L102.7 0L102.7 -390C102.7 -390 102.7 -398 110.7 -398L142.7 -398 " stroke-linecap="butt" stroke-width="3" stroke="#5e6c9d" fill="none"></path></g><g from="root" to="1e26dd7b-0ea6-4775-9d4c-613262c1087a"><path d="M78.7 0L102.7 0L102.7 -237.5C102.7 -237.5 102.7 -245.5 110.7 -245.5L142.7 -245.5 " stroke-linecap="butt" stroke-width="3" stroke="#527cd9" fill="none"></path></g><g from="root" to="5d185b7a-a182-47a2-8563-186fcbf3a1ac"><path d="M78.7 0L102.7 0L102.7 0C102.7 0 102.7 0 102.7 0L142.7 0 " stroke-linecap="butt" stroke-width="3" stroke="#5251b9" fill="none"></path></g><g from="root" to="78ceacbe-494c-458c-949b-8c0c10066acd"><path d="M78.7 0L102.7 0L102.7 217.5C102.7 217.5 102.7 225.5 110.7 225.5L142.7 225.5 " stroke-linecap="butt" stroke-width="3" stroke="#5fb3d8" fill="none"></path></g><g from="root" to="914d734b-3ff1-4e3c-85f7-3e64bcbb981a"><path d="M78.7 0L102.7 0L102.7 370.5C102.7 370.5 102.7 378.5 110.7 378.5L142.7 378.5 " stroke-linecap="butt" stroke-width="3" stroke="#805ccc" fill="none"></path></g><g from="1e26dd7b-0ea6-4775-9d4c-613262c1087a" to="83f082f1-7c04-4849-a12a-5f62a424d848"><path d="M249.5 -245.5L261.5 -245.5L261.5 -283.5C261.5 -283.5 261.5 -289.5 267.5 -289.5L273.5 -289.5 " stroke-linecap="butt" stroke-width="2" stroke="#527cd9" fill="none"></path></g><g from="1e26dd7b-0ea6-4775-9d4c-613262c1087a" to="09f93914-31a0-422d-83fe-96147f9171d2"><path d="M249.5 -245.5L261.5 -245.5L261.5 -245.5C261.5 -245.5 261.5 -245.5 261.5 -245.5L273.5 -245.5 " stroke-linecap="butt" stroke-width="2" stroke="#527cd9" fill="none"></path></g><g from="1e26dd7b-0ea6-4775-9d4c-613262c1087a" to="acc7c664-8665-4b8d-b5e0-0dbd215edf4e"><path d="M249.5 -245.5L261.5 -245.5L261.5 -207.5C261.5 -207.5 261.5 -201.5 267.5 -201.5L273.5 -201.5 " stroke-linecap="butt" stroke-width="2" stroke="#527cd9" fill="none"></path></g><g from="5d185b7a-a182-47a2-8563-186fcbf3a1ac" to="7196ae24-18cb-41c1-839c-191eee65223f"><path d="M249.5 0L261.5 0L261.5 -110.5C261.5 -110.5 261.5 -116.5 267.5 -116.5L273.5 -116.5 " stroke-linecap="butt" stroke-width="2" stroke="#5251b9" fill="none"></path></g><g from="5d185b7a-a182-47a2-8563-186fcbf3a1ac" to="7c895439-53b9-4723-accb-1657c9dbbbf5"><path d="M249.5 0L261.5 0L261.5 -2.5C261.5 -2.5 261.5 -8.5 267.5 -8.5L273.5 -8.5 " stroke-linecap="butt" stroke-width="2" stroke="#5251b9" fill="none"></path></g><g from="5d185b7a-a182-47a2-8563-186fcbf3a1ac" to="5b7bbb61-2690-46fd-a426-e14406e24fb1"><path d="M249.5 0L261.5 0L261.5 110.5C261.5 110.5 261.5 116.5 267.5 116.5L273.5 116.5 " stroke-linecap="butt" stroke-width="2" stroke="#5251b9" fill="none"></path></g><g from="7196ae24-18cb-41c1-839c-191eee65223f" to="04670e8e-9487-43fe-9257-efc6775ab689"><path d="M315.9 -116.5L327.9 -116.5L327.9 -137.5C327.9 -137.5 327.9 -143.5 333.9 -143.5L339.9 -143.5 " stroke-linecap="butt" stroke-width="2" stroke="#5251b9" fill="none"></path></g><g from="7196ae24-18cb-41c1-839c-191eee65223f" to="00c8df3e-4d28-4e9e-a868-f7ca927737e1"><path d="M315.9 -116.5L327.9 -116.5L327.9 -95.5C327.9 -95.5 327.9 -89.5 333.9 -89.5L339.9 -89.5 " stroke-linecap="butt" stroke-width="2" stroke="#5251b9" fill="none"></path></g><g from="7c895439-53b9-4723-accb-1657c9dbbbf5" to="834f647d-5c3f-4eb0-9c26-8cb06b6fa626"><path d="M315.9 -8.5L327.9 -8.5L327.9 -29.5C327.9 -29.5 327.9 -35.5 333.9 -35.5L339.9 -35.5 " stroke-linecap="butt" stroke-width="2" stroke="#5251b9" fill="none"></path></g><g from="7c895439-53b9-4723-accb-1657c9dbbbf5" to="17be7b7d-d582-45e5-8a2c-257986848347"><path d="M315.9 -8.5L327.9 -8.5L327.9 12.5C327.9 12.5 327.9 18.5 333.9 18.5L339.9 18.5 " stroke-linecap="butt" stroke-width="2" stroke="#5251b9" fill="none"></path></g><g from="5b7bbb61-2690-46fd-a426-e14406e24fb1" to="20ad4d06-4631-4ebd-864b-ea46e670087c" opacity="1"><path d="M343.9 116.5L355.9 116.5L355.9 78.5C355.9 78.5 355.9 72.5 361.9 72.5L367.9 72.5 " stroke-linecap="butt" stroke-width="2" stroke="#5251b9" fill="none"></path></g><g from="5b7bbb61-2690-46fd-a426-e14406e24fb1" to="0d4ae1ff-5c04-425d-b499-3d6887263f9a" opacity="1"><path d="M343.9 116.5L355.9 116.5L355.9 116.5C355.9 116.5 355.9 116.5 355.9 116.5L367.9 116.5 " stroke-linecap="butt" stroke-width="2" stroke="#5251b9" fill="none"></path></g><g from="5b7bbb61-2690-46fd-a426-e14406e24fb1" to="0b17ba3b-77f1-4ce0-b76e-dae04c801a7a" opacity="1"><path d="M343.9 116.5L355.9 116.5L355.9 154.5C355.9 154.5 355.9 160.5 361.9 160.5L367.9 160.5 " stroke-linecap="butt" stroke-width="2" stroke="#5251b9" fill="none"></path></g><g from="78ceacbe-494c-458c-949b-8c0c10066acd" to="2c05f22a-1f08-49cc-8e37-9519b2714523"><path d="M249.5 225.5L261.5 225.5L261.5 225.5C261.5 225.5 261.5 225.5 261.5 225.5L273.5 225.5 " stroke-linecap="butt" stroke-width="2" stroke="#5fb3d8" fill="none"></path></g><g from="914d734b-3ff1-4e3c-85f7-3e64bcbb981a" to="620220e0-912b-4790-89be-b425f735e34b" opacity="1"><path d="M249.5 378.5L261.5 378.5L261.5 296.5C261.5 296.5 261.5 290.5 267.5 290.5L273.5 290.5 " stroke-linecap="butt" stroke-width="2" stroke="#805ccc" fill="none"></path></g><g from="914d734b-3ff1-4e3c-85f7-3e64bcbb981a" to="1355c6ec-fa49-4098-a464-71258fdfbcad" opacity="1"><path d="M249.5 378.5L261.5 378.5L261.5 340.5C261.5 340.5 261.5 334.5 267.5 334.5L273.5 334.5 " stroke-linecap="butt" stroke-width="2" stroke="#805ccc" fill="none"></path></g><g from="914d734b-3ff1-4e3c-85f7-3e64bcbb981a" to="79ca4ef6-645b-4056-988d-fb944e5ce421" opacity="1"><path d="M249.5 378.5L261.5 378.5L261.5 378.5C261.5 378.5 261.5 378.5 261.5 378.5L273.5 378.5 " stroke-linecap="butt" stroke-width="2" stroke="#805ccc" fill="none"></path></g><g from="914d734b-3ff1-4e3c-85f7-3e64bcbb981a" to="cc233e8c-ac17-4815-af34-a50aec1404db" opacity="1"><path d="M249.5 378.5L261.5 378.5L261.5 416.5C261.5 416.5 261.5 422.5 267.5 422.5L273.5 422.5 " stroke-linecap="butt" stroke-width="2" stroke="#805ccc" fill="none"></path></g><g from="914d734b-3ff1-4e3c-85f7-3e64bcbb981a" to="4e7ebe3c-badd-487b-967a-159c49bbb896" opacity="1"><path d="M249.5 378.5L261.5 378.5L261.5 460.5C261.5 460.5 261.5 466.5 267.5 466.5L273.5 466.5 " stroke-linecap="butt" stroke-width="2" stroke="#805ccc" fill="none"></path></g><g from="a6ee1a90-b48b-4f0f-93a4-6e9551ca3346" to="5479395a-b0f4-4bb6-a064-6da3cae0b427"><path d="M249.5 -398L261.5 -398L261.5 -432.5C261.5 -432.5 261.5 -438.5 267.5 -438.5L273.5 -438.5 " stroke-linecap="butt" stroke-width="2" stroke="#5e6c9d" fill="none"></path></g><g from="a6ee1a90-b48b-4f0f-93a4-6e9551ca3346" to="014929da-3ae0-40e7-8810-7903fb8160af"><path d="M249.5 -398L261.5 -398L261.5 -363.5C261.5 -363.5 261.5 -357.5 267.5 -357.5L273.5 -357.5 " stroke-linecap="butt" stroke-width="2" stroke="#5e6c9d" fill="none"></path></g><g from="5479395a-b0f4-4bb6-a064-6da3cae0b427" to="99c497e8-bc4e-4168-8686-5b2cad633138"><path d="M335.9 -438.5L347.9 -438.5L347.9 -459.5C347.9 -459.5 347.9 -465.5 353.9 -465.5L359.9 -465.5 " stroke-linecap="butt" stroke-width="2" stroke="#5e6c9d" fill="none"></path></g><g from="5479395a-b0f4-4bb6-a064-6da3cae0b427" to="e6c460b5-23ad-42c3-98ed-adc235a84692"><path d="M335.9 -438.5L347.9 -438.5L347.9 -417.5C347.9 -417.5 347.9 -411.5 353.9 -411.5L359.9 -411.5 " stroke-linecap="butt" stroke-width="2" stroke="#5e6c9d" fill="none"></path></g></g><g class="po-mind-generalize-container"></g><g class="po-mind-associative-line-container"><g id="line_cd99d8de-0ea4-416c-a842-9b29874ca3ee" class="connection-svg"><path d="M 432.9 219.9 C 904 196.5  829 -432.5  638.3 -451.1" fill="none" stroke-linejoin="round" stroke-opacity="0" class="connection-line-bg" stroke-width="6" stroke="#ff9f1a" style="pointer-events: null"></path><path d="M 432.9 219.9 C 904 196.5  829 -432.5  638.3 -451.1" fill="none" stroke-linejoin="round" class="connection-line" stroke-dasharray="10,5" stroke-width="2" stroke="#ff9f1a" style="pointer-events: null"></path><path d="M638.3 -451.1 L647.404726198939 -455.23569351407394 M638.3 -451.1 L646.433978744924 -445.2829225742541 Z" fill="#ff9f1a" class="connection-end-arrow" stroke-width="2" stroke="#ff9f1a"></path><path d="M432.9 219.9 Z" fill="#ff9f1a" class="connection-start-arrow" stroke-width="2" stroke="#ff9f1a"></path></g></g><g class="po-mind-node-container"><g class="po-mind-topic" id="topic-root" style="" transform="matrix(1,0,0,1,-78.7,-31)" opacity="1"><path d="M10,0 L147.4,0 C147.4,0 157.4,0 157.4,10 L157.4,52 C157.4,52 157.4,62 147.4,62
      L10,62 C10,62 0,62 0,52 L0,10 C0,10 0,0 10,0Z" class="po-mind-topic-shape-fill" transform="matrix(1,0,0,1,0,0)" fill="#3f3e6e"></path><path d="M10,0 L147.4,0 C147.4,0 157.4,0 157.4,10 L157.4,52 C157.4,52 157.4,62 147.4,62
      L10,62 C10,62 0,62 0,52 L0,10 C0,10 0,0 10,0Z" class="po-mind-topic-shape" transform="matrix(1,0,0,1,0,0)" fill="none" stroke-width="0"></path><g transform="matrix(1,0,0,1,24,14)"><g data-width="109.4" data-height="34" data-offsetx="0" transform="matrix(1,0,0,1,0,0)"><g><text text-anchor="start" align="top" anchor="start" font-size="24px" font-weight="600" fill="rgb(255, 255, 255)" style="font-family: 微软雅黑;font-size: 24px;font-weight: 600;line-height: 140%;max-width: 360px;overflow-wrap: break-word;word-break: break-word;text-size-adjust: 100%;color: rgb(255, 255, 255);"><tspan x="0" y="23.999999999999993"><tspan dx="0">Fiber协程</tspan></tspan></text></g></g></g></g><g class="po-mind-topic" id="topic-a6ee1a90-b48b-4f0f-93a4-6e9551ca3346" style="" transform="matrix(1,0,0,1,142.7,-419)"><path d="M8,0 L98.8,0 C98.8,0 106.8,0 106.8,8 L106.8,34 C106.8,34 106.8,42 98.8,42
      L8,42 C8,42 0,42 0,34 L0,8 C0,8 0,0 8,0Z" class="po-mind-topic-shape-fill" transform="matrix(1,0,0,1,0,0)" fill="#5e6c9d"></path><path d="M8,0 L98.8,0 C98.8,0 106.8,0 106.8,8 L106.8,34 C106.8,34 106.8,42 98.8,42
      L8,42 C8,42 0,42 0,34 L0,8 C0,8 0,0 8,0Z" class="po-mind-topic-shape" transform="matrix(1,0,0,1,0,0)" fill="none" stroke-width="0"></path><g transform="matrix(1,0,0,1,16,8)"><g data-width="74.8" data-height="26" data-offsetx="0" transform="matrix(1,0,0,1,0,0)"><g><text text-anchor="start" align="top" anchor="start" font-size="18px" font-weight="500" fill="rgb(255, 255, 255)" style="font-family: 微软雅黑;font-size: 18px;font-weight: 500;line-height: 140%;max-width: 378px;overflow-wrap: break-word;word-break: break-word;text-size-adjust: 100%;color: rgb(255, 255, 255);"><tspan x="0" y="18"><tspan dx="0">构造函数</tspan></tspan></text></g></g></g></g><g class="po-mind-topic" id="topic-5479395a-b0f4-4bb6-a064-6da3cae0b427" style="" transform="matrix(1,0,0,1,273.5,-452.5)"><path d="M0,0 L62.4,0 C62.4,0 62.4,0 62.4,0 
                         L62.4,28 C62.4,28 62.4,28 62.4,28 
                         L0,28 C0,28 0,28 0,28 L0,0 
                         C0,0 0,0 0,0 Z" class="po-mind-topic-shape-fill" transform="matrix(1,0,0,1,0,0)" fill="none"></path><path d="M0,0 L62.4,0 C62.4,0 62.4,0 62.4,0 
                         L62.4,28 C62.4,28 62.4,28 62.4,28 
                         L0,28 C0,28 0,28 0,28 L0,0 
                         C0,0 0,0 0,0 Z" class="po-mind-topic-shape" transform="matrix(1,0,0,1,0,0)" fill="none" stroke-width="0"></path><g transform="matrix(1,0,0,1,6,4)"><g data-width="50.4" data-height="20" data-offsetx="0" transform="matrix(1,0,0,1,0,0)"><g><text text-anchor="start" align="top" anchor="start" font-size="14px" font-weight="" fill="rgb(63, 62, 110)" style="font-family: Georgia;font-size: 14px;line-height: 140%;max-width: 378px;overflow-wrap: break-word;word-break: break-word;text-size-adjust: 100%;color: rgb(63, 62, 110);"><tspan x="0" y="13.999999999999996"><tspan dx="0">Fiber();</tspan></tspan></text></g></g></g></g><g class="po-mind-topic" id="topic-99c497e8-bc4e-4168-8686-5b2cad633138" style="" transform="matrix(1,0,0,1,359.9,-489.5)"><path d="M0,0 L278.4,0 C278.4,0 278.4,0 278.4,0 
                         L278.4,48 C278.4,48 278.4,48 278.4,48 
                         L0,48 C0,48 0,48 0,48 L0,0 
                         C0,0 0,0 0,0 Z" class="po-mind-topic-shape-fill" transform="matrix(1,0,0,1,0,0)" fill="none"></path><path d="M0,0 L278.4,0 C278.4,0 278.4,0 278.4,0 
                         L278.4,48 C278.4,48 278.4,48 278.4,48 
                         L0,48 C0,48 0,48 0,48 L0,0 
                         C0,0 0,0 0,0 Z" class="po-mind-topic-shape" transform="matrix(1,0,0,1,0,0)" fill="none" stroke-width="0"></path><g transform="matrix(1,0,0,1,6,4)"><g data-width="266.4" data-height="40" data-offsetx="0" transform="matrix(1,0,0,1,0,0)"><g><text text-anchor="start" align="top" anchor="start" font-size="14px" font-weight="" fill="rgb(63, 62, 110)" style="font-family: 微软雅黑;font-size: 14px;line-height: 140%;max-width: 378px;overflow-wrap: break-word;word-break: break-word;text-size-adjust: 100%;color: rgb(63, 62, 110);"><tspan x="0" y="13.999999999999996"><tspan dx="0">该构造函数定义在private中。</tspan></tspan><tspan x="0" y="33.599999999999994"><tspan dx="0">仅由GetThis()调用 -&gt; 私有 -&gt; 创建主协程</tspan></tspan></text></g></g></g></g><g class="po-mind-topic" id="topic-e6c460b5-23ad-42c3-98ed-adc235a84692" style="" transform="matrix(1,0,0,1,359.9,-425.5)"><path d="M0,0 L168.4,0 C168.4,0 168.4,0 168.4,0 
                         L168.4,28 C168.4,28 168.4,28 168.4,28 
                         L0,28 C0,28 0,28 0,28 L0,0 
                         C0,0 0,0 0,0 Z" class="po-mind-topic-shape-fill" transform="matrix(1,0,0,1,0,0)" fill="none"></path><path d="M0,0 L168.4,0 C168.4,0 168.4,0 168.4,0 
                         L168.4,28 C168.4,28 168.4,28 168.4,28 
                         L0,28 C0,28 0,28 0,28 L0,0 
                         C0,0 0,0 0,0 Z" class="po-mind-topic-shape" transform="matrix(1,0,0,1,0,0)" fill="none" stroke-width="0"></path><g transform="matrix(1,0,0,1,6,4)"><g data-width="156.4" data-height="20" data-offsetx="0" transform="matrix(1,0,0,1,0,0)"><g><text text-anchor="start" align="top" anchor="start" font-size="14px" font-weight="" fill="rgb(63, 62, 110)" style="font-family: 微软雅黑;font-size: 14px;line-height: 140%;max-width: 378px;overflow-wrap: break-word;word-break: break-word;text-size-adjust: 100%;color: rgb(63, 62, 110);"><tspan x="0" y="13.999999999999996"><tspan dx="0">其中不会申请协程栈空间</tspan></tspan></text></g></g></g></g><g class="po-mind-topic" id="topic-014929da-3ae0-40e7-8810-7903fb8160af" style="" transform="matrix(1,0,0,1,273.5,-381.5)"><path d="M0,0 L391.4,0 C391.4,0 391.4,0 391.4,0 
                         L391.4,48 C391.4,48 391.4,48 391.4,48 
                         L0,48 C0,48 0,48 0,48 L0,0 
                         C0,0 0,0 0,0 Z" class="po-mind-topic-shape-fill" transform="matrix(1,0,0,1,0,0)" fill="none"></path><path d="M0,0 L391.4,0 C391.4,0 391.4,0 391.4,0 
                         L391.4,48 C391.4,48 391.4,48 391.4,48 
                         L0,48 C0,48 0,48 0,48 L0,0 
                         C0,0 0,0 0,0 Z" class="po-mind-topic-shape" transform="matrix(1,0,0,1,0,0)" fill="none" stroke-width="0"></path><g transform="matrix(1,0,0,1,6,4)"><g data-width="379.4" data-height="40" data-offsetx="0" transform="matrix(1,0,0,1,0,0)"><g><text text-anchor="start" align="top" anchor="start" font-size="14px" font-weight="" fill="rgb(63, 62, 110)" style="font-family: Georgia;font-size: 14px;text-decoration: none;line-height: 140%;max-width: 378px;overflow-wrap: break-word;word-break: break-word;text-size-adjust: 100%;color: rgb(63, 62, 110);"><tspan x="0" y="13.999999999999996"><tspan dx="0">Fiber(std::function&lt;void()&gt; cb, size_t stacksize = 0, bool </tspan></tspan><tspan x="0" y="33.599999999999994"><tspan dx="0">run_in_scheduler = true);</tspan></tspan></text></g></g></g></g><g class="po-mind-topic" id="topic-1e26dd7b-0ea6-4775-9d4c-613262c1087a" style="" transform="matrix(1,0,0,1,142.7,-266.5)"><path d="M8,0 L98.8,0 C98.8,0 106.8,0 106.8,8 L106.8,34 C106.8,34 106.8,42 98.8,42
      L8,42 C8,42 0,42 0,34 L0,8 C0,8 0,0 8,0Z" class="po-mind-topic-shape-fill" transform="matrix(1,0,0,1,0,0)" fill="#527cd9"></path><path d="M8,0 L98.8,0 C98.8,0 106.8,0 106.8,8 L106.8,34 C106.8,34 106.8,42 98.8,42
      L8,42 C8,42 0,42 0,34 L0,8 C0,8 0,0 8,0Z" class="po-mind-topic-shape" transform="matrix(1,0,0,1,0,0)" fill="none" stroke-width="0"></path><g transform="matrix(1,0,0,1,16,8)"><g data-width="74.8" data-height="26" data-offsetx="0" transform="matrix(1,0,0,1,0,0)"><g><text text-anchor="start" align="top" anchor="start" font-size="18px" font-weight="500" fill="rgb(255, 255, 255)" style="font-family: 微软雅黑;font-size: 18px;font-weight: 500;line-height: 140%;max-width: 378px;overflow-wrap: break-word;word-break: break-word;text-size-adjust: 100%;color: rgb(255, 255, 255);"><tspan x="0" y="18"><tspan dx="0">协程状态</tspan></tspan></text></g></g></g></g><g class="po-mind-topic" id="topic-83f082f1-7c04-4849-a12a-5f62a424d848" style="" transform="matrix(1,0,0,1,273.5,-303.5)"><path d="M0,0 L102.4,0 C102.4,0 102.4,0 102.4,0 
                         L102.4,28 C102.4,28 102.4,28 102.4,28 
                         L0,28 C0,28 0,28 0,28 L0,0 
                         C0,0 0,0 0,0 Z" class="po-mind-topic-shape-fill" transform="matrix(1,0,0,1,0,0)" fill="none"></path><path d="M0,0 L102.4,0 C102.4,0 102.4,0 102.4,0 
                         L102.4,28 C102.4,28 102.4,28 102.4,28 
                         L0,28 C0,28 0,28 0,28 L0,0 
                         C0,0 0,0 0,0 Z" class="po-mind-topic-shape" transform="matrix(1,0,0,1,0,0)" fill="none" stroke-width="0"></path><g transform="matrix(1,0,0,1,6,4)"><g data-width="90.4" data-height="20" data-offsetx="0" transform="matrix(1,0,0,1,0,0)"><g><text text-anchor="start" align="top" anchor="start" font-size="14px" font-weight="" fill="rgb(63, 62, 110)" style="font-family: 微软雅黑;font-size: 14px;line-height: 140%;max-width: 378px;overflow-wrap: break-word;word-break: break-word;text-size-adjust: 100%;color: rgb(63, 62, 110);"><tspan x="0" y="13.999999999999996"><tspan dx="0" style="font-weight:bold;fill:rgb(70, 105, 234);">READY</tspan><tspan dx="0">：就绪</tspan></tspan></text></g></g></g></g><g class="po-mind-topic" id="topic-09f93914-31a0-422d-83fe-96147f9171d2" style="" transform="matrix(1,0,0,1,273.5,-259.5)"><path d="M0,0 L125.4,0 C125.4,0 125.4,0 125.4,0 
                         L125.4,28 C125.4,28 125.4,28 125.4,28 
                         L0,28 C0,28 0,28 0,28 L0,0 
                         C0,0 0,0 0,0 Z" class="po-mind-topic-shape-fill" transform="matrix(1,0,0,1,0,0)" fill="none"></path><path d="M0,0 L125.4,0 C125.4,0 125.4,0 125.4,0 
                         L125.4,28 C125.4,28 125.4,28 125.4,28 
                         L0,28 C0,28 0,28 0,28 L0,0 
                         C0,0 0,0 0,0 Z" class="po-mind-topic-shape" transform="matrix(1,0,0,1,0,0)" fill="none" stroke-width="0"></path><g transform="matrix(1,0,0,1,6,4)"><g data-width="113.4" data-height="20" data-offsetx="0" transform="matrix(1,0,0,1,0,0)"><g><text text-anchor="start" align="top" anchor="start" font-size="14px" font-weight="" fill="rgb(63, 62, 110)" style="font-family: 微软雅黑;font-size: 14px;line-height: 140%;max-width: 378px;overflow-wrap: break-word;word-break: break-word;text-size-adjust: 100%;color: rgb(63, 62, 110);"><tspan x="0" y="13.999999999999996"><tspan dx="0" style="font-weight:bold;fill:rgb(123, 209, 68);">RUNNING</tspan><tspan dx="0">：运行</tspan></tspan></text></g></g></g></g><g class="po-mind-topic" id="topic-acc7c664-8665-4b8d-b5e0-0dbd215edf4e" style="" transform="matrix(1,0,0,1,273.5,-215.5)"><path d="M0,0 L95.4,0 C95.4,0 95.4,0 95.4,0 
                         L95.4,28 C95.4,28 95.4,28 95.4,28 
                         L0,28 C0,28 0,28 0,28 L0,0 
                         C0,0 0,0 0,0 Z" class="po-mind-topic-shape-fill" transform="matrix(1,0,0,1,0,0)" fill="none"></path><path d="M0,0 L95.4,0 C95.4,0 95.4,0 95.4,0 
                         L95.4,28 C95.4,28 95.4,28 95.4,28 
                         L0,28 C0,28 0,28 0,28 L0,0 
                         C0,0 0,0 0,0 Z" class="po-mind-topic-shape" transform="matrix(1,0,0,1,0,0)" fill="none" stroke-width="0"></path><g transform="matrix(1,0,0,1,6,4)"><g data-width="83.4" data-height="20" data-offsetx="0" transform="matrix(1,0,0,1,0,0)"><g><text text-anchor="start" align="top" anchor="start" font-size="14px" font-weight="" fill="rgb(63, 62, 110)" style="font-family: 微软雅黑;font-size: 14px;line-height: 140%;max-width: 378px;overflow-wrap: break-word;word-break: break-word;text-size-adjust: 100%;color: rgb(63, 62, 110);"><tspan x="0" y="13.999999999999996"><tspan dx="0" style="font-weight:bold;fill:rgb(231, 79, 76);">TERM</tspan><tspan dx="0">：结束</tspan></tspan></text></g></g></g></g><g class="po-mind-topic" id="topic-5d185b7a-a182-47a2-8563-186fcbf3a1ac" style="" transform="matrix(1,0,0,1,142.7,-21)"><path d="M8,0 L98.8,0 C98.8,0 106.8,0 106.8,8 L106.8,34 C106.8,34 106.8,42 98.8,42
      L8,42 C8,42 0,42 0,34 L0,8 C0,8 0,0 8,0Z" class="po-mind-topic-shape-fill" transform="matrix(1,0,0,1,0,0)" fill="#5251b9"></path><path d="M8,0 L98.8,0 C98.8,0 106.8,0 106.8,8 L106.8,34 C106.8,34 106.8,42 98.8,42
      L8,42 C8,42 0,42 0,34 L0,8 C0,8 0,0 8,0Z" class="po-mind-topic-shape" transform="matrix(1,0,0,1,0,0)" fill="none" stroke-width="0"></path><g transform="matrix(1,0,0,1,16,8)"><g data-width="74.8" data-height="26" data-offsetx="0" transform="matrix(1,0,0,1,0,0)"><g><text text-anchor="start" align="top" anchor="start" font-size="18px" font-weight="500" fill="rgb(255, 255, 255)" style="font-family: 微软雅黑;font-size: 18px;font-weight: 500;line-height: 140%;max-width: 378px;overflow-wrap: break-word;word-break: break-word;text-size-adjust: 100%;color: rgb(255, 255, 255);"><tspan x="0" y="18"><tspan dx="0">协程操作</tspan></tspan></text></g></g></g></g><g class="po-mind-topic" id="topic-7196ae24-18cb-41c1-839c-191eee65223f" style="" transform="matrix(1,0,0,1,273.5,-130.5)"><path d="M0,0 L42.4,0 C42.4,0 42.4,0 42.4,0 
                         L42.4,28 C42.4,28 42.4,28 42.4,28 
                         L0,28 C0,28 0,28 0,28 L0,0 
                         C0,0 0,0 0,0 Z" class="po-mind-topic-shape-fill" transform="matrix(1,0,0,1,0,0)" fill="none"></path><path d="M0,0 L42.4,0 C42.4,0 42.4,0 42.4,0 
                         L42.4,28 C42.4,28 42.4,28 42.4,28 
                         L0,28 C0,28 0,28 0,28 L0,0 
                         C0,0 0,0 0,0 Z" class="po-mind-topic-shape" transform="matrix(1,0,0,1,0,0)" fill="none" stroke-width="0"></path><g transform="matrix(1,0,0,1,6,4)"><g data-width="30.4" data-height="20" data-offsetx="0" transform="matrix(1,0,0,1,0,0)"><g><text text-anchor="start" align="top" anchor="start" font-size="14px" font-weight="" fill="rgb(63, 62, 110)" style="font-family: 微软雅黑;font-size: 14px;line-height: 140%;max-width: 378px;overflow-wrap: break-word;word-break: break-word;text-size-adjust: 100%;color: rgb(63, 62, 110);"><tspan x="0" y="13.999999999999996"><tspan dx="0">挂起</tspan></tspan></text></g></g></g></g><g class="po-mind-topic" id="topic-04670e8e-9487-43fe-9257-efc6775ab689" style="" transform="matrix(1,0,0,1,339.9,-157.5)"><path d="M0,0 L92.4,0 C92.4,0 92.4,0 92.4,0 
                         L92.4,28 C92.4,28 92.4,28 92.4,28 
                         L0,28 C0,28 0,28 0,28 L0,0 
                         C0,0 0,0 0,0 Z" class="po-mind-topic-shape-fill" transform="matrix(1,0,0,1,0,0)" fill="none"></path><path d="M0,0 L92.4,0 C92.4,0 92.4,0 92.4,0 
                         L92.4,28 C92.4,28 92.4,28 92.4,28 
                         L0,28 C0,28 0,28 0,28 L0,0 
                         C0,0 0,0 0,0 Z" class="po-mind-topic-shape" transform="matrix(1,0,0,1,0,0)" fill="none" stroke-width="0"></path><g transform="matrix(1,0,0,1,6,4)"><g data-width="80.4" data-height="20" data-offsetx="0" transform="matrix(1,0,0,1,0,0)"><g><text text-anchor="start" align="top" anchor="start" font-size="14px" font-weight="" fill="rgb(63, 62, 110)" style="font-family: 微软雅黑;font-size: 14px;line-height: 140%;max-width: 378px;overflow-wrap: break-word;word-break: break-word;text-size-adjust: 100%;color: rgb(63, 62, 110);"><tspan x="0" y="13.999999999999996"><tspan dx="0">void yield();</tspan></tspan></text></g></g></g></g><g class="po-mind-topic" id="topic-00c8df3e-4d28-4e9e-a868-f7ca927737e1" style="" transform="matrix(1,0,0,1,339.9,-113.5)"><path d="M0,0 L391.4,0 C391.4,0 391.4,0 391.4,0 
                         L391.4,48 C391.4,48 391.4,48 391.4,48 
                         L0,48 C0,48 0,48 0,48 L0,0 
                         C0,0 0,0 0,0 Z" class="po-mind-topic-shape-fill" transform="matrix(1,0,0,1,0,0)" fill="none"></path><path d="M0,0 L391.4,0 C391.4,0 391.4,0 391.4,0 
                         L391.4,48 C391.4,48 391.4,48 391.4,48 
                         L0,48 C0,48 0,48 0,48 L0,0 
                         C0,0 0,0 0,0 Z" class="po-mind-topic-shape" transform="matrix(1,0,0,1,0,0)" fill="none" stroke-width="0"></path><g transform="matrix(1,0,0,1,6,4)"><g data-width="379.4" data-height="40" data-offsetx="0" transform="matrix(1,0,0,1,0,0)"><g><text text-anchor="start" align="top" anchor="start" font-size="14px" font-weight="" fill="rgb(63, 62, 110)" style="font-family: 微软雅黑;font-size: 14px;line-height: 140%;max-width: 378px;overflow-wrap: break-word;word-break: break-word;text-size-adjust: 100%;color: rgb(63, 62, 110);"><tspan x="0" y="13.999999999999996"><tspan dx="0">协程交换，当前协程变为 </tspan><tspan dx="0" style="fill:rgb(70, 105, 234);font-weight:bold;">READY</tspan><tspan dx="0">，上次resume时保存的协</tspan></tspan><tspan x="0" y="33.599999999999994"><tspan dx="0">程变为 </tspan><tspan dx="0" style="fill:rgb(123, 209, 68);font-weight:bold;">RUNNING</tspan></tspan></text></g></g></g></g><g class="po-mind-topic" id="topic-7c895439-53b9-4723-accb-1657c9dbbbf5" style="" transform="matrix(1,0,0,1,273.5,-22.5)"><path d="M0,0 L42.4,0 C42.4,0 42.4,0 42.4,0 
                         L42.4,28 C42.4,28 42.4,28 42.4,28 
                         L0,28 C0,28 0,28 0,28 L0,0 
                         C0,0 0,0 0,0 Z" class="po-mind-topic-shape-fill" transform="matrix(1,0,0,1,0,0)" fill="none"></path><path d="M0,0 L42.4,0 C42.4,0 42.4,0 42.4,0 
                         L42.4,28 C42.4,28 42.4,28 42.4,28 
                         L0,28 C0,28 0,28 0,28 L0,0 
                         C0,0 0,0 0,0 Z" class="po-mind-topic-shape" transform="matrix(1,0,0,1,0,0)" fill="none" stroke-width="0"></path><g transform="matrix(1,0,0,1,6,4)"><g data-width="30.4" data-height="20" data-offsetx="0" transform="matrix(1,0,0,1,0,0)"><g><text text-anchor="start" align="top" anchor="start" font-size="14px" font-weight="" fill="rgb(63, 62, 110)" style="font-family: 微软雅黑;font-size: 14px;line-height: 140%;max-width: 378px;overflow-wrap: break-word;word-break: break-word;text-size-adjust: 100%;color: rgb(63, 62, 110);"><tspan x="0" y="13.999999999999996"><tspan dx="0">恢复</tspan></tspan></text></g></g></g></g><g class="po-mind-topic" id="topic-834f647d-5c3f-4eb0-9c26-8cb06b6fa626" style="" transform="matrix(1,0,0,1,339.9,-49.5)"><path d="M0,0 L109.4,0 C109.4,0 109.4,0 109.4,0 
                         L109.4,28 C109.4,28 109.4,28 109.4,28 
                         L0,28 C0,28 0,28 0,28 L0,0 
                         C0,0 0,0 0,0 Z" class="po-mind-topic-shape-fill" transform="matrix(1,0,0,1,0,0)" fill="none"></path><path d="M0,0 L109.4,0 C109.4,0 109.4,0 109.4,0 
                         L109.4,28 C109.4,28 109.4,28 109.4,28 
                         L0,28 C0,28 0,28 0,28 L0,0 
                         C0,0 0,0 0,0 Z" class="po-mind-topic-shape" transform="matrix(1,0,0,1,0,0)" fill="none" stroke-width="0"></path><g transform="matrix(1,0,0,1,6,4)"><g data-width="97.4" data-height="20" data-offsetx="0" transform="matrix(1,0,0,1,0,0)"><g><text text-anchor="start" align="top" anchor="start" font-size="14px" font-weight="" fill="rgb(63, 62, 110)" style="font-family: 微软雅黑;font-size: 14px;line-height: 140%;max-width: 378px;overflow-wrap: break-word;word-break: break-word;text-size-adjust: 100%;color: rgb(63, 62, 110);"><tspan x="0" y="13.999999999999996"><tspan dx="0">void resume();</tspan></tspan></text></g></g></g></g><g class="po-mind-topic" id="topic-17be7b7d-d582-45e5-8a2c-257986848347" style="" transform="matrix(1,0,0,1,339.9,-5.5)"><path d="M0,0 L391.4,0 C391.4,0 391.4,0 391.4,0 
                         L391.4,48 C391.4,48 391.4,48 391.4,48 
                         L0,48 C0,48 0,48 0,48 L0,0 
                         C0,0 0,0 0,0 Z" class="po-mind-topic-shape-fill" transform="matrix(1,0,0,1,0,0)" fill="none"></path><path d="M0,0 L391.4,0 C391.4,0 391.4,0 391.4,0 
                         L391.4,48 C391.4,48 391.4,48 391.4,48 
                         L0,48 C0,48 0,48 0,48 L0,0 
                         C0,0 0,0 0,0 Z" class="po-mind-topic-shape" transform="matrix(1,0,0,1,0,0)" fill="none" stroke-width="0"></path><g transform="matrix(1,0,0,1,6,4)"><g data-width="379.4" data-height="40" data-offsetx="0" transform="matrix(1,0,0,1,0,0)"><g><text text-anchor="start" align="top" anchor="start" font-size="14px" font-weight="" fill="rgb(63, 62, 110)" style="font-family: 微软雅黑;font-size: 14px;line-height: 140%;max-width: 378px;overflow-wrap: break-word;word-break: break-word;text-size-adjust: 100%;color: rgb(63, 62, 110);"><tspan x="0" y="13.999999999999996"><tspan dx="0">协程交换，当前协程变为 </tspan><tspan dx="0" style="font-weight:bold;fill:rgb(123, 209, 68);">RUNNING</tspan><tspan dx="0">，正在运行的协程变为 </tspan></tspan><tspan x="0" y="33.599999999999994"><tspan dx="0" style="font-weight:bold;fill:rgb(70, 105, 234);">READY</tspan></tspan></text></g></g></g></g><g class="po-mind-topic" id="topic-5b7bbb61-2690-46fd-a426-e14406e24fb1" style="" transform="matrix(1,0,0,1,273.5,102.5)" opacity="1"><path d="M0,0 L70.4,0 C70.4,0 70.4,0 70.4,0 
                         L70.4,28 C70.4,28 70.4,28 70.4,28 
                         L0,28 C0,28 0,28 0,28 L0,0 
                         C0,0 0,0 0,0 Z" class="po-mind-topic-shape-fill" transform="matrix(1,0,0,1,0,0)" fill="none"></path><path d="M0,0 L70.4,0 C70.4,0 70.4,0 70.4,0 
                         L70.4,28 C70.4,28 70.4,28 70.4,28 
                         L0,28 C0,28 0,28 0,28 L0,0 
                         C0,0 0,0 0,0 Z" class="po-mind-topic-shape" transform="matrix(1,0,0,1,0,0)" fill="none" stroke-width="0"></path><g transform="matrix(1,0,0,1,6,4)"><g data-width="58.4" data-height="20" data-offsetx="0" transform="matrix(1,0,0,1,0,0)"><g><text text-anchor="start" align="top" anchor="start" font-size="14px" font-weight="" fill="rgb(63, 62, 110)" style="font-family: 微软雅黑;font-size: 14px;line-height: 140%;max-width: 378px;overflow-wrap: break-word;word-break: break-word;text-size-adjust: 100%;color: rgb(63, 62, 110);"><tspan x="0" y="13.999999999999996"><tspan dx="0">重用协程</tspan></tspan></text></g></g></g></g><g class="po-mind-topic" id="topic-20ad4d06-4631-4ebd-864b-ea46e670087c" style="" transform="matrix(1,0,0,1,367.9,58.5)" opacity="1"><path d="M0,0 L242.4,0 C242.4,0 242.4,0 242.4,0 
                         L242.4,28 C242.4,28 242.4,28 242.4,28 
                         L0,28 C0,28 0,28 0,28 L0,0 
                         C0,0 0,0 0,0 Z" class="po-mind-topic-shape-fill" transform="matrix(1,0,0,1,0,0)" fill="none"></path><path d="M0,0 L242.4,0 C242.4,0 242.4,0 242.4,0 
                         L242.4,28 C242.4,28 242.4,28 242.4,28 
                         L0,28 C0,28 0,28 0,28 L0,0 
                         C0,0 0,0 0,0 Z" class="po-mind-topic-shape" transform="matrix(1,0,0,1,0,0)" fill="none" stroke-width="0"></path><g transform="matrix(1,0,0,1,6,4)"><g data-width="230.4" data-height="20" data-offsetx="0" transform="matrix(1,0,0,1,0,0)"><g><text text-anchor="start" align="top" anchor="start" font-size="14px" font-weight="" fill="rgb(63, 62, 110)" style="font-family: Georgia;font-size: 14px;line-height: 140%;max-width: 378px;overflow-wrap: break-word;word-break: break-word;text-size-adjust: 100%;color: rgb(63, 62, 110);"><tspan x="0" y="13.999999999999996"><tspan dx="0">void reset(std::function&lt;void()&gt; cb);</tspan></tspan></text></g></g></g></g><g class="po-mind-topic" id="topic-0d4ae1ff-5c04-425d-b499-3d6887263f9a" style="" transform="matrix(1,0,0,1,367.9,102.5)" opacity="1"><path d="M0,0 L336.4,0 C336.4,0 336.4,0 336.4,0 
                         L336.4,28 C336.4,28 336.4,28 336.4,28 
                         L0,28 C0,28 0,28 0,28 L0,0 
                         C0,0 0,0 0,0 Z" class="po-mind-topic-shape-fill" transform="matrix(1,0,0,1,0,0)" fill="none"></path><path d="M0,0 L336.4,0 C336.4,0 336.4,0 336.4,0 
                         L336.4,28 C336.4,28 336.4,28 336.4,28 
                         L0,28 C0,28 0,28 0,28 L0,0 
                         C0,0 0,0 0,0 Z" class="po-mind-topic-shape" transform="matrix(1,0,0,1,0,0)" fill="none" stroke-width="0"></path><g transform="matrix(1,0,0,1,6,4)"><g data-width="324.4" data-height="20" data-offsetx="0" transform="matrix(1,0,0,1,0,0)"><g><text text-anchor="start" align="top" anchor="start" font-size="14px" font-weight="" fill="rgb(63, 62, 110)" style="font-family: 微软雅黑;font-size: 14px;line-height: 140%;max-width: 378px;overflow-wrap: break-word;word-break: break-word;text-size-adjust: 100%;color: rgb(63, 62, 110);"><tspan x="0" y="13.999999999999996"><tspan dx="0">重复利⽤已结束的协程，复⽤其栈空间，创建新协程</tspan></tspan></text></g></g></g></g><g class="po-mind-topic" id="topic-0b17ba3b-77f1-4ce0-b76e-dae04c801a7a" style="" transform="matrix(1,0,0,1,367.9,146.5)" opacity="1"><path d="M0,0 L351.4,0 C351.4,0 351.4,0 351.4,0 
                         L351.4,28 C351.4,28 351.4,28 351.4,28 
                         L0,28 C0,28 0,28 0,28 L0,0 
                         C0,0 0,0 0,0 Z" class="po-mind-topic-shape-fill" transform="matrix(1,0,0,1,0,0)" fill="none"></path><path d="M0,0 L351.4,0 C351.4,0 351.4,0 351.4,0 
                         L351.4,28 C351.4,28 351.4,28 351.4,28 
                         L0,28 C0,28 0,28 0,28 L0,0 
                         C0,0 0,0 0,0 Z" class="po-mind-topic-shape" transform="matrix(1,0,0,1,0,0)" fill="none" stroke-width="0"></path><g transform="matrix(1,0,0,1,6,4)"><g data-width="339.4" data-height="20" data-offsetx="0" transform="matrix(1,0,0,1,0,0)"><g><text text-anchor="start" align="top" anchor="start" font-size="14px" font-weight="" fill="rgb(63, 62, 110)" style="font-family: 微软雅黑;font-size: 14px;line-height: 140%;max-width: 378px;overflow-wrap: break-word;word-break: break-word;text-size-adjust: 100%;color: rgb(63, 62, 110);"><tspan x="0" y="13.999999999999996"><tspan dx="0">原来已结束协程状态是</tspan><tspan dx="0" style="font-weight:bold;fill:rgb(231, 79, 76);">TERM</tspan><tspan dx="0">，创建的新协程为</tspan><tspan dx="0" style="font-weight:bold;fill:rgb(70, 105, 234);">READY</tspan></tspan></text></g></g></g></g><g class="po-mind-topic" id="topic-78ceacbe-494c-458c-949b-8c0c10066acd" style="" transform="matrix(1,0,0,1,142.7,204.5)"><path d="M8,0 L98.8,0 C98.8,0 106.8,0 106.8,8 L106.8,34 C106.8,34 106.8,42 98.8,42
      L8,42 C8,42 0,42 0,34 L0,8 C0,8 0,0 8,0Z" class="po-mind-topic-shape-fill" transform="matrix(1,0,0,1,0,0)" fill="#5fb3d8"></path><path d="M8,0 L98.8,0 C98.8,0 106.8,0 106.8,8 L106.8,34 C106.8,34 106.8,42 98.8,42
      L8,42 C8,42 0,42 0,34 L0,8 C0,8 0,0 8,0Z" class="po-mind-topic-shape" transform="matrix(1,0,0,1,0,0)" fill="none" stroke-width="0"></path><g transform="matrix(1,0,0,1,16,8)"><g data-width="74.8" data-height="26" data-offsetx="0" transform="matrix(1,0,0,1,0,0)"><g><text text-anchor="start" align="top" anchor="start" font-size="18px" font-weight="500" fill="rgb(255, 255, 255)" style="font-family: 微软雅黑;font-size: 18px;font-weight: 500;line-height: 140%;max-width: 378px;overflow-wrap: break-word;word-break: break-word;text-size-adjust: 100%;color: rgb(255, 255, 255);"><tspan x="0" y="18"><tspan dx="0">协程函数</tspan></tspan></text></g></g></g></g><g class="po-mind-topic" id="topic-2c05f22a-1f08-49cc-8e37-9519b2714523" style="" transform="matrix(1,0,0,1,273.5,211.5)"><path d="M0,0 L159.4,0 C159.4,0 159.4,0 159.4,0 
                         L159.4,28 C159.4,28 159.4,28 159.4,28 
                         L0,28 C0,28 0,28 0,28 L0,0 
                         C0,0 0,0 0,0 Z" class="po-mind-topic-shape-fill" transform="matrix(1,0,0,1,0,0)" fill="none"></path><path d="M0,0 L159.4,0 C159.4,0 159.4,0 159.4,0 
                         L159.4,28 C159.4,28 159.4,28 159.4,28 
                         L0,28 C0,28 0,28 0,28 L0,0 
                         C0,0 0,0 0,0 Z" class="po-mind-topic-shape" transform="matrix(1,0,0,1,0,0)" fill="none" stroke-width="0"></path><g transform="matrix(1,0,0,1,6,4)"><g data-width="147.4" data-height="20" data-offsetx="0" transform="matrix(1,0,0,1,0,0)"><g><text text-anchor="start" align="top" anchor="start" font-size="14px" font-weight="" fill="rgb(63, 62, 110)" style="font-family: Georgia;font-size: 14px;line-height: 140%;max-width: 378px;overflow-wrap: break-word;word-break: break-word;text-size-adjust: 100%;color: rgb(63, 62, 110);"><tspan x="0" y="13.999999999999996"><tspan dx="0">static void MainFunc();</tspan></tspan></text></g></g></g></g><g class="po-mind-topic" id="topic-914d734b-3ff1-4e3c-85f7-3e64bcbb981a" transform="matrix(1,0,0,1,142.7,357.5)" style="" opacity="1"><path d="M8,0 L98.8,0 C98.8,0 106.8,0 106.8,8 L106.8,34 C106.8,34 106.8,42 98.8,42
      L8,42 C8,42 0,42 0,34 L0,8 C0,8 0,0 8,0Z" class="po-mind-topic-shape-fill" transform="matrix(1,0,0,1,0,0)" fill="#805ccc"></path><path d="M8,0 L98.8,0 C98.8,0 106.8,0 106.8,8 L106.8,34 C106.8,34 106.8,42 98.8,42
      L8,42 C8,42 0,42 0,34 L0,8 C0,8 0,0 8,0Z" class="po-mind-topic-shape" transform="matrix(1,0,0,1,0,0)" fill="none" stroke-width="0"></path><g transform="matrix(1,0,0,1,16,8)"><g data-width="74.8" data-height="26" data-offsetx="0" transform="matrix(1,0,0,1,0,0)"><g><text text-anchor="start" align="top" anchor="start" font-size="18px" font-weight="500" fill="rgb(255, 255, 255)" style="font-family: 微软雅黑;font-size: 18px;font-weight: 500;line-height: 140%;max-width: 378px;overflow-wrap: break-word;word-break: break-word;text-size-adjust: 100%;color: rgb(255, 255, 255);"><tspan x="0" y="18"><tspan dx="0">调度算法</tspan></tspan></text></g></g></g></g><g class="po-mind-topic" id="topic-620220e0-912b-4790-89be-b425f735e34b" transform="matrix(1,0,0,1,273.5,276.5)" style="" opacity="1"><path d="M0,0 L319.4,0 C319.4,0 319.4,0 319.4,0 
                         L319.4,28 C319.4,28 319.4,28 319.4,28 
                         L0,28 C0,28 0,28 0,28 L0,0 
                         C0,0 0,0 0,0 Z" class="po-mind-topic-shape-fill" transform="matrix(1,0,0,1,0,0)" fill="none"></path><path d="M0,0 L319.4,0 C319.4,0 319.4,0 319.4,0 
                         L319.4,28 C319.4,28 319.4,28 319.4,28 
                         L0,28 C0,28 0,28 0,28 L0,0 
                         C0,0 0,0 0,0 Z" class="po-mind-topic-shape" transform="matrix(1,0,0,1,0,0)" fill="none" stroke-width="0"></path><g transform="matrix(1,0,0,1,6,4)"><g data-width="307.4" data-height="20" data-offsetx="0" transform="matrix(1,0,0,1,0,0)"><g><text text-anchor="start" align="top" anchor="start" font-size="14px" font-weight="" fill="rgb(63, 62, 110)" style="font-family: 微软雅黑;font-size: 14px;line-height: 140%;max-width: 378px;overflow-wrap: break-word;word-break: break-word;text-size-adjust: 100%;color: rgb(63, 62, 110);"><tspan x="0" y="13.999999999999996"><tspan dx="0">先来先服务（`FCFS, First-Come-First-Served`）</tspan></tspan></text></g></g></g></g><g class="po-mind-topic" id="topic-1355c6ec-fa49-4098-a464-71258fdfbcad" transform="matrix(1,0,0,1,273.5,320.5)" style="" opacity="1"><path d="M0,0 L278.4,0 C278.4,0 278.4,0 278.4,0 
                         L278.4,28 C278.4,28 278.4,28 278.4,28 
                         L0,28 C0,28 0,28 0,28 L0,0 
                         C0,0 0,0 0,0 Z" class="po-mind-topic-shape-fill" transform="matrix(1,0,0,1,0,0)" fill="none"></path><path d="M0,0 L278.4,0 C278.4,0 278.4,0 278.4,0 
                         L278.4,28 C278.4,28 278.4,28 278.4,28 
                         L0,28 C0,28 0,28 0,28 L0,0 
                         C0,0 0,0 0,0 Z" class="po-mind-topic-shape" transform="matrix(1,0,0,1,0,0)" fill="none" stroke-width="0"></path><g transform="matrix(1,0,0,1,6,4)"><g data-width="266.4" data-height="20" data-offsetx="0" transform="matrix(1,0,0,1,0,0)"><g><text text-anchor="start" align="top" anchor="start" font-size="14px" font-weight="" fill="rgb(63, 62, 110)" style="font-family: 微软雅黑;font-size: 14px;line-height: 140%;max-width: 378px;overflow-wrap: break-word;word-break: break-word;text-size-adjust: 100%;color: rgb(63, 62, 110);"><tspan x="0" y="13.999999999999996"><tspan dx="0">最短作业优先（`SJF, Shortest Job First`）</tspan></tspan></text></g></g></g></g><g class="po-mind-topic" id="topic-79ca4ef6-645b-4056-988d-fb944e5ce421" transform="matrix(1,0,0,1,273.5,364.5)" style="" opacity="1"><path d="M0,0 L247.4,0 C247.4,0 247.4,0 247.4,0 
                         L247.4,28 C247.4,28 247.4,28 247.4,28 
                         L0,28 C0,28 0,28 0,28 L0,0 
                         C0,0 0,0 0,0 Z" class="po-mind-topic-shape-fill" transform="matrix(1,0,0,1,0,0)" fill="none"></path><path d="M0,0 L247.4,0 C247.4,0 247.4,0 247.4,0 
                         L247.4,28 C247.4,28 247.4,28 247.4,28 
                         L0,28 C0,28 0,28 0,28 L0,0 
                         C0,0 0,0 0,0 Z" class="po-mind-topic-shape" transform="matrix(1,0,0,1,0,0)" fill="none" stroke-width="0"></path><g transform="matrix(1,0,0,1,6,4)"><g data-width="235.4" data-height="20" data-offsetx="0" transform="matrix(1,0,0,1,0,0)"><g><text text-anchor="start" align="top" anchor="start" font-size="14px" font-weight="" fill="rgb(63, 62, 110)" style="font-family: 微软雅黑;font-size: 14px;line-height: 140%;max-width: 378px;overflow-wrap: break-word;word-break: break-word;text-size-adjust: 100%;color: rgb(63, 62, 110);"><tspan x="0" y="13.999999999999996"><tspan dx="0">优先级调度（`Priority Scheduling`）</tspan></tspan></text></g></g></g></g><g class="po-mind-topic" id="topic-cc233e8c-ac17-4815-af34-a50aec1404db" transform="matrix(1,0,0,1,273.5,408.5)" style="" opacity="1"><path d="M0,0 L233.4,0 C233.4,0 233.4,0 233.4,0 
                         L233.4,28 C233.4,28 233.4,28 233.4,28 
                         L0,28 C0,28 0,28 0,28 L0,0 
                         C0,0 0,0 0,0 Z" class="po-mind-topic-shape-fill" transform="matrix(1,0,0,1,0,0)" fill="none"></path><path d="M0,0 L233.4,0 C233.4,0 233.4,0 233.4,0 
                         L233.4,28 C233.4,28 233.4,28 233.4,28 
                         L0,28 C0,28 0,28 0,28 L0,0 
                         C0,0 0,0 0,0 Z" class="po-mind-topic-shape" transform="matrix(1,0,0,1,0,0)" fill="none" stroke-width="0"></path><g transform="matrix(1,0,0,1,6,4)"><g data-width="221.4" data-height="20" data-offsetx="0" transform="matrix(1,0,0,1,0,0)"><g><text text-anchor="start" align="top" anchor="start" font-size="14px" font-weight="" fill="rgb(63, 62, 110)" style="font-family: 微软雅黑;font-size: 14px;line-height: 140%;max-width: 378px;overflow-wrap: break-word;word-break: break-word;text-size-adjust: 100%;color: rgb(63, 62, 110);"><tspan x="0" y="13.999999999999996"><tspan dx="0">时间片轮转（`RR, Round Robin`）</tspan></tspan></text></g></g></g></g><g class="po-mind-topic" id="topic-4e7ebe3c-badd-487b-967a-159c49bbb896" transform="matrix(1,0,0,1,273.5,452.5)" style="" opacity="1"><path d="M0,0 L32,0 C32,0 32,0 32,0 
                         L32,28 C32,28 32,28 32,28 
                         L0,28 C0,28 0,28 0,28 L0,0 
                         C0,0 0,0 0,0 Z" class="po-mind-topic-shape-fill" transform="matrix(1,0,0,1,0,0)" fill="none"></path><path d="M0,0 L32,0 C32,0 32,0 32,0 
                         L32,28 C32,28 32,28 32,28 
                         L0,28 C0,28 0,28 0,28 L0,0 
                         C0,0 0,0 0,0 Z" class="po-mind-topic-shape" transform="matrix(1,0,0,1,0,0)" fill="none" stroke-width="0"></path><g transform="matrix(1,0,0,1,6,4)"><g data-width="20" data-height="20" data-offsetx="0" transform="matrix(1,0,0,1,0,0)"><g><text text-anchor="start" align="top" anchor="start" font-size="14px" font-weight="" fill="rgb(63, 62, 110)" style="font-family: 微软雅黑;font-size: 14px;line-height: 140%;max-width: 378px;overflow-wrap: break-word;word-break: break-word;text-size-adjust: 100%;color: rgb(63, 62, 110);"><tspan x="0" y="13.999999999999996"><tspan dx="0">...</tspan></tspan></text></g></g></g></g></g><g class="po-mind-associative-line-label-container"><g conn="cd99d8de-0ea4-416c-a842-9b29874ca3ee" class="mind-connection-con-new" transform="matrix(1,0,0,1,732.39609375,-133.15)"><g class="mind-connection-label"><rect width="102.7578125" height="31.5" rx="5" ry="5" style="cursor: text" fill="#ff9f1a"></rect><text x="6" y="20.5" style="cursor: text" fill="#000e00"><tspan dy="0" x="6" font-size="13px" fill="#000e00">调用到GetThis()</tspan></text></g><g class="mind-connection-label-icons" transform="matrix(1,0,0,1,94.7578125,-8)" style="display: none;"><svg width="16" height="16" id="cd99d8de-0ea4-416c-a842-9b29874ca3ee"><circle r="8" cx="8" cy="8" fill="#ffffff"></circle><circle r="7" cx="7" cy="7" transform="matrix(1,0,0,1,1,1)" class="circle-inner" fill="#ff9f1a"></circle><g transform="matrix(1,0,0,1,1,1)"><svg t="1718590209755" width="14" height="14" class="icon" viewBox="0 0 1024 1024" p-id="88178" style="color: rgb(0, 14, 0);">
            <path d="M263.459391 437.252599c-40.090067 0-72.590272 32.601512-72.590272 72.817446 0 40.216957 32.500205 72.817446 72.590272 72.817446s72.591295-32.600489 72.591295-72.817446C336.049662 469.855134 303.549457 437.252599 263.459391 437.252599zM510.267543 437.252599c-40.090067 0-72.591295 32.601512-72.591295 72.817446 0 40.216957 32.500205 72.817446 72.591295 72.817446s72.591295-32.600489 72.591295-72.817446C582.858838 469.855134 550.35761 437.252599 510.267543 437.252599zM757.076718 437.252599c-40.092114 0-72.592318 32.600489-72.592318 72.817446 0 40.216957 32.500205 72.817446 72.592318 72.817446 40.090067 0 72.591295-32.600489 72.591295-72.817446C829.66699 469.853088 797.166785 437.252599 757.076718 437.252599z" p-id="88179"></path></svg></g></svg></g></g></g></g><defs><filter id="dropShadow"><feGaussianBlur in="SourceAlpha" stdDeviation="3"></feGaussianBlur><feOffset dx="1" dy="1" result="offsetblur"></feOffset><feFlood flood-color="black" flood-opacity="0.1"></feFlood><feComposite in2="offsetblur" operator="in"></feComposite><feMerge><feMergeNode></feMergeNode><feMergeNode in="SourceGraphic"></feMergeNode></feMerge></filter></defs><style>
    .connection-svg{
        outline: none;
        box-shadow: none;
        -webkit-tap-highlight-color: transparent;
    }
    .connection-line {
        cursor: pointer;
    }

    .connection-line-bg {
        cursor: pointer;
    }

    .node-add-btn {
        cursor: pointer;
    }

    .po-richtext-node-wrap ol,
    .area_box ol,
    .po-measureCustomNode ol {
        padding-left: 20px;
        margin: 0;
    }
    .po-richtext-node-wrap ol li,
    .area_box ol li,
    .po-measureCustomNode ol li {
        list-style: decimal;
    }
    .po-richtext-node-wrap ul,
    .area_box ul,
    .po-measureCustomNode ul {
        padding-left: calc(15px + 0.5em);
        list-style: none;
        margin: 0;
    }
    .po-richtext-node-wrap ul li,
    .area_box ul li,
    .po-measureCustomNode ul li {
        list-style: disc;
    }
    .po-richtext-node-wrap p,
    .po-richtext-node-wrap h1,
    .po-richtext-node-wrap h2,
    .po-richtext-node-wrap h3,
    .po-richtext-node-wrap h4,
    .po-richtext-node-wrap h5,
    .po-richtext-node-wrap h6,
    .area_box p,
    .area_box h1,
    .area_box h2,
    .area_box h3,
    .area_box h4,
    .area_box h5,
    .area_box h6,
    .po-measureCustomNode p,
    .po-measureCustomNode h1,
    .po-measureCustomNode h2,
    .po-measureCustomNode h3,
    .po-measureCustomNode h4,
    .po-measureCustomNode h5,
    .po-measureCustomNode h6 {
        margin: 0;
    }
    .po-safari-fixed {
        position: fixed;
    }
</style></svg>